<?xml version="1.0" encoding="UTF-8"?>
<svg version="1.1" xmlns="http://www.w3.org/2000/svg" width="500" height="500">
<path d="M0 0 C1.52043915 0.00081573 1.52043915 0.00081573 3.07159424 0.00164795 C19.27235744 0.0415348 34.80739379 0.91971609 50.6875 4.375 C52.21093018 4.69645996 52.21093018 4.69645996 53.76513672 5.02441406 C68.52782018 8.21320939 82.67583781 12.76169095 96.6875 18.375 C97.46786621 18.68663086 98.24823242 18.99826172 99.05224609 19.31933594 C117.16321957 26.6758242 134.1720845 36.50076916 149.6875 48.375 C150.26016602 48.80635254 150.83283203 49.23770508 151.42285156 49.68212891 C160.33561708 56.40721562 168.64237968 63.63763054 176.6875 71.375 C177.17879395 71.84437988 177.67008789 72.31375977 178.17626953 72.79736328 C184.90342163 79.25316807 190.96990272 86.01571637 196.6875 93.375 C197.13706055 93.94283203 197.58662109 94.51066406 198.04980469 95.09570312 C210.28404491 110.58522866 220.45115202 127.4390152 228.6875 145.375 C229.1817749 146.44621094 229.1817749 146.44621094 229.68603516 147.5390625 C244.3968188 179.84509717 251.13400668 214.32058441 251.0625 249.6875 C251.06168427 251.20793915 251.06168427 251.20793915 251.06085205 252.75909424 C251.0209652 268.95985744 250.14278391 284.49489379 246.6875 300.375 C246.36604004 301.89843018 246.36604004 301.89843018 246.03808594 303.45263672 C242.84929061 318.21532018 238.30080905 332.36333781 232.6875 346.375 C232.22005371 347.54554932 232.22005371 347.54554932 231.74316406 348.73974609 C224.3866758 366.85071957 214.56173084 383.8595845 202.6875 399.375 C202.25614746 399.94766602 201.82479492 400.52033203 201.38037109 401.11035156 C194.65528438 410.02311708 187.42486946 418.32987968 179.6875 426.375 C178.98343018 427.11194092 178.98343018 427.11194092 178.26513672 427.86376953 C171.80933193 434.59092163 165.04678363 440.65740272 157.6875 446.375 C157.11966797 446.82456055 156.55183594 447.27412109 155.96679688 447.73730469 C140.47727134 459.97154491 123.6234848 470.13865202 105.6875 478.375 C104.97335937 478.7045166 104.25921875 479.0340332 103.5234375 479.37353516 C71.21740283 494.0843188 36.74191559 500.82150668 1.375 500.75 C-0.14543915 500.74918427 -0.14543915 500.74918427 -1.69659424 500.74835205 C-17.89735744 500.7084652 -33.43239379 499.83028391 -49.3125 496.375 C-50.83593018 496.05354004 -50.83593018 496.05354004 -52.39013672 495.72558594 C-67.15282018 492.53679061 -81.30083781 487.98830905 -95.3125 482.375 C-96.09286621 482.06336914 -96.87323242 481.75173828 -97.67724609 481.43066406 C-115.78821957 474.0741758 -132.7970845 464.24923084 -148.3125 452.375 C-148.88516602 451.94364746 -149.45783203 451.51229492 -150.04785156 451.06787109 C-158.96061708 444.34278438 -167.26737968 437.11236946 -175.3125 429.375 C-175.80379395 428.90562012 -176.29508789 428.43624023 -176.80126953 427.95263672 C-183.52842163 421.49683193 -189.59490272 414.73428363 -195.3125 407.375 C-195.76206055 406.80716797 -196.21162109 406.23933594 -196.67480469 405.65429688 C-208.90904491 390.16477134 -219.07615202 373.3109848 -227.3125 355.375 C-227.6420166 354.66085937 -227.9715332 353.94671875 -228.31103516 353.2109375 C-243.0218188 320.90490283 -249.75900668 286.42941559 -249.6875 251.0625 C-249.68695618 250.0488739 -249.68641235 249.0352478 -249.68585205 247.99090576 C-249.6459652 231.79014256 -248.76778391 216.25510621 -245.3125 200.375 C-244.99104004 198.85156982 -244.99104004 198.85156982 -244.66308594 197.29736328 C-241.47429061 182.53467982 -236.92580905 168.38666219 -231.3125 154.375 C-231.00086914 153.59463379 -230.68923828 152.81426758 -230.36816406 152.01025391 C-223.0116758 133.89928043 -213.18673084 116.8904155 -201.3125 101.375 C-200.88114746 100.80233398 -200.44979492 100.22966797 -200.00537109 99.63964844 C-193.28028438 90.72688292 -186.04986946 82.42012032 -178.3125 74.375 C-177.60843018 73.63805908 -177.60843018 73.63805908 -176.89013672 72.88623047 C-170.43433193 66.15907837 -163.67178363 60.09259728 -156.3125 54.375 C-155.74466797 53.92543945 -155.17683594 53.47587891 -154.59179688 53.01269531 C-139.10227134 40.77845509 -122.2484848 30.61134798 -104.3125 22.375 C-103.24128906 21.8807251 -103.24128906 21.8807251 -102.1484375 21.37646484 C-69.84240283 6.6656812 -35.36691559 -0.07150668 0 0 Z " fill="#98C4FE" transform="translate(249.3125,-0.375)"/>
<path d="M0 0 C2.55318035 0.84865089 5.12186902 1.64258779 7.69091797 2.44189453 C24.3899464 7.71992843 39.29440902 13.71435245 53.06982422 24.68798828 C45.56690429 41.1198217 37.23756542 57.12608364 28.92407227 73.1574707 C26.9406365 76.98545833 24.98827596 80.82683366 23.06982422 84.68798828 C22.48458984 84.34767578 21.89935547 84.00736328 21.29638672 83.65673828 C-2.71314542 70.10180722 -31.30512553 57.7764858 -59.36767578 63.81298828 C-68.42369042 66.49625188 -74.86006653 70.44730195 -79.87158203 78.53955078 C-82.68886194 84.25727752 -82.39124161 90.44264206 -81.93017578 96.68798828 C-78.42501175 106.83451573 -67.37140073 113.19551401 -58.36767578 118.18798828 C-57.62155029 118.60250244 -56.8754248 119.0170166 -56.10668945 119.4440918 C-45.27899977 125.29848074 -33.92106709 130.10546364 -22.68527222 135.11206055 C7.25478921 148.47059905 7.25478921 148.47059905 18.06982422 156.68798828 C18.92189453 157.33251953 19.77396484 157.97705078 20.65185547 158.64111328 C26.7117809 163.36990302 32.44031865 168.45787331 38.06982422 173.68798828 C38.70919922 174.27322266 39.34857422 174.85845703 40.00732422 175.46142578 C53.82626874 188.60176142 61.67908622 206.10355306 62.34716797 225.01220703 C62.93341408 253.30901502 57.30759616 280.41790372 37.35913086 301.54370117 C11.48673169 327.69223887 -26.33397908 335.67244966 -61.80517578 336.06298828 C-83.75702441 336.03864189 -105.14119202 332.75541616 -125.93017578 325.68798828 C-127.78449219 325.0634375 -127.78449219 325.0634375 -129.67626953 324.42626953 C-149.21379986 317.17320643 -169.44638688 306.76416001 -184.93017578 292.68798828 C-184.34771273 288.69453202 -183.11191214 285.93420929 -181.00830078 282.50439453 C-180.09757812 281.00513428 -180.09757812 281.00513428 -179.16845703 279.47558594 C-178.51232422 278.41130371 -177.85619141 277.34702148 -177.18017578 276.25048828 C-175.80961635 273.99965352 -174.43983983 271.74834187 -173.07080078 269.49658203 C-172.72368042 268.92774292 -172.37656006 268.35890381 -172.0189209 267.77282715 C-168.59368803 262.1558922 -165.259113 256.48730189 -161.93017578 250.81298828 C-157.73300827 243.67913434 -153.48030518 236.60418497 -148.93017578 229.68798828 C-144.85699684 230.252114 -142.64788624 232.40111903 -139.55517578 235.00048828 C-115.92371142 253.94589535 -85.38212218 266.86949606 -54.93017578 264.68798828 C-43.27172797 263.22204156 -33.00616114 260.12468048 -25.49267578 250.62548828 C-20.14040778 243.16890978 -20.21239085 235.53752088 -20.93017578 226.68798828 C-22.87614684 218.00061746 -30.99183484 212.44482694 -37.89892578 207.60986328 C-52.83889324 198.18511746 -69.37611777 191.09768946 -85.39111328 183.69580078 C-101.09781062 176.39995077 -114.89590749 168.18260999 -127.93017578 156.68798828 C-128.62369141 156.07826172 -129.31720703 155.46853516 -130.03173828 154.84033203 C-145.93121426 139.92269621 -156.40369989 118.89289708 -157.13330078 97.05908203 C-157.53603397 71.59454479 -150.2133631 48.85233885 -132.93017578 29.68798828 C-132.25470703 28.93001953 -131.57923828 28.17205078 -130.88330078 27.39111328 C-98.03930952 -7.4284564 -44.23774171 -14.92489879 0 0 Z " fill="#004AAD" transform="translate(248.93017578125,87.31201171875)"/>
<path d="M0 0 C24.75 0 49.5 0 75 0 C75 108.9 75 217.8 75 330 C50.25 330 25.5 330 0 330 C0 221.1 0 112.2 0 0 Z " fill="#FEFEFE" transform="translate(347,87)"/>
</svg>
